<svg width="414" height="736" viewBox="0 0 414 736" fill="none" xmlns="http://www.w3.org/2000/svg">
<g clip-path="url(#clip0)">
<path d="M414 0H0V736H414V0Z" fill="white"/>
<path d="M0 535.968C0 535.968 138.163 691.146 229.218 636C320.273 580.854 413.893 450.043 413.893 450.043V779.636H0V535.968Z" fill="#2B2D42"/>
<path opacity="0.24" d="M0.106995 517.925C0.106995 517.925 138.27 673.103 229.325 617.957C320.38 562.811 414 432 414 432V761.593H0.106995V517.925Z" fill="#2B2D42"/>
<path d="M414 188.032C414 188.032 275.837 32.854 184.782 88C93.727 143.146 0.106995 273.957 0.106995 273.957L0.106995 -55.636L414 -55.636L414 188.032Z" fill="#2B2D42"/>
<path opacity="0.24" d="M413.893 206.075C413.893 206.075 275.73 50.897 184.675 106.043C93.62 161.189 0 292 0 292L0 -37.593L413.893 -37.593L413.893 206.075Z" fill="#2B2D42"/>
<g clip-path="url(#clip1)">
<path d="M205.226 377.172C204.661 377.172 204.101 377.061 203.579 376.845C203.056 376.628 202.582 376.31 202.183 375.91L162.336 336.059C144.957 318.676 144.606 290.383 161.555 272.988C165.675 268.772 170.587 265.413 176.011 263.103C181.434 260.793 187.26 259.579 193.154 259.53C199.049 259.481 204.894 260.598 210.355 262.817C215.816 265.037 220.784 268.314 224.973 272.461L227.873 275.352C231.875 272.743 236.652 271.588 241.404 272.081C246.155 272.575 250.593 274.687 253.973 278.063C260.877 284.981 264.755 294.355 264.755 304.129C264.755 313.903 260.877 323.277 253.973 330.195L208.265 375.91C207.867 376.311 207.393 376.628 206.872 376.845C206.35 377.062 205.791 377.173 205.226 377.172ZM193.536 268.133H193.228C188.467 268.154 183.758 269.125 179.377 270.99C174.996 272.855 171.032 275.575 167.716 278.992C154.036 293.031 154.349 315.906 168.416 329.977L205.225 366.785L247.893 324.113C253.185 318.808 256.157 311.62 256.157 304.127C256.157 296.634 253.185 289.446 247.893 284.141C246.093 282.345 243.779 281.154 241.271 280.734C238.764 280.314 236.188 280.686 233.901 281.797C239.301 288.896 241.945 297.711 241.343 306.61C240.742 315.509 236.936 323.889 230.631 330.197L208.264 352.564C207.865 352.963 207.391 353.28 206.869 353.496C206.347 353.713 205.788 353.824 205.223 353.824C204.658 353.824 204.099 353.713 203.577 353.496C203.055 353.28 202.581 352.963 202.182 352.564L173.925 324.3C163.07 313.444 162.725 295.7 173.148 284.745C175.728 282.044 178.819 279.883 182.242 278.387C185.665 276.892 189.351 276.092 193.086 276.034C196.821 275.976 200.53 276.662 203.997 278.051C207.465 279.439 210.622 281.504 213.284 284.124C213.973 284.812 214.907 285.198 215.88 285.198C216.853 285.198 217.787 284.812 218.476 284.124L221.484 281.116L218.902 278.546C215.568 275.226 211.61 272.597 207.257 270.81C202.904 269.023 198.241 268.113 193.536 268.133ZM193.529 284.633C193.429 284.633 193.322 284.633 193.22 284.633C190.627 284.662 188.066 285.211 185.689 286.248C183.312 287.286 181.168 288.79 179.384 290.672C172.146 298.272 172.431 310.629 180.009 318.215L205.228 343.433L224.552 324.109C229.318 319.331 232.219 313.007 232.734 306.278C233.25 299.549 231.344 292.857 227.361 287.409L224.561 290.209C222.262 292.501 219.149 293.79 215.902 293.795C212.655 293.799 209.538 292.518 207.233 290.232C203.586 286.624 198.657 284.612 193.527 284.637L193.529 284.633Z" fill="#D5573B"/>
<path d="M129.383 389.459C129.637 389.446 129.89 389.487 130.127 389.578C130.364 389.67 130.579 389.81 130.758 389.99C130.934 390.175 131.07 390.393 131.159 390.632C131.248 390.872 131.287 391.126 131.274 391.381V408.993C131.283 409.251 131.241 409.508 131.15 409.749C131.059 409.991 130.921 410.212 130.743 410.399C130.568 410.581 130.356 410.724 130.122 410.818C129.888 410.913 129.636 410.956 129.384 410.946C129.127 410.958 128.87 410.916 128.63 410.822C128.39 410.728 128.173 410.583 127.993 410.399C127.65 410.013 127.471 409.509 127.493 408.993V401.572H116.664V408.994C116.673 409.252 116.631 409.509 116.54 409.75C116.449 409.992 116.311 410.213 116.133 410.4C115.953 410.584 115.736 410.728 115.496 410.822C115.256 410.917 114.999 410.959 114.742 410.947C114.488 410.956 114.235 410.912 113.998 410.818C113.762 410.724 113.548 410.581 113.37 410.4C113.019 410.018 112.833 409.512 112.854 408.994V391.384C112.84 391.131 112.877 390.877 112.963 390.638C113.049 390.399 113.182 390.18 113.354 389.993C113.536 389.813 113.753 389.673 113.992 389.581C114.231 389.489 114.486 389.447 114.742 389.459C114.998 389.447 115.254 389.488 115.493 389.579C115.732 389.671 115.95 389.81 116.133 389.99C116.313 390.173 116.452 390.391 116.544 390.63C116.635 390.869 116.676 391.125 116.664 391.381V398.459H127.492V391.381C127.478 391.128 127.515 390.874 127.601 390.635C127.687 390.396 127.82 390.177 127.992 389.99C128.175 389.81 128.392 389.67 128.632 389.579C128.871 389.487 129.127 389.447 129.383 389.459Z" fill="black"/>
<path d="M146.513 406.743C146.67 406.74 146.825 406.774 146.966 406.842C147.107 406.91 147.231 407.01 147.326 407.134C147.556 407.433 147.671 407.804 147.65 408.181C147.627 408.518 147.512 408.843 147.316 409.119C147.12 409.395 146.852 409.611 146.541 409.744C145.805 410.139 145.023 410.443 144.213 410.65C143.415 410.87 142.591 410.985 141.763 410.993C140.739 411.047 139.715 410.894 138.75 410.545C137.786 410.195 136.902 409.656 136.15 408.959C135.445 408.219 134.899 407.343 134.545 406.384C134.191 405.425 134.036 404.405 134.091 403.384C134.064 402.004 134.37 400.637 134.982 399.4C135.548 398.275 136.427 397.337 137.513 396.7C138.642 396.045 139.927 395.71 141.232 395.731C142.441 395.703 143.635 396.005 144.685 396.606C145.665 397.182 146.453 398.036 146.95 399.059C147.514 400.227 147.793 401.512 147.763 402.809C147.763 403.676 147.388 404.109 146.638 404.109H137.778C137.802 405.228 138.217 406.304 138.95 407.15C139.341 407.494 139.796 407.757 140.29 407.924C140.784 408.09 141.305 408.157 141.825 408.119C142.4 408.128 142.974 408.049 143.525 407.885C144.088 407.689 144.641 407.465 145.181 407.213C145.587 406.965 146.041 406.804 146.513 406.743ZM141.325 398.368C140.871 398.348 140.418 398.423 139.995 398.59C139.572 398.757 139.19 399.012 138.872 399.337C138.212 400.107 137.827 401.074 137.778 402.087H144.559C144.592 401.087 144.271 400.107 143.653 399.321C143.36 398.999 142.999 398.747 142.596 398.582C142.194 398.417 141.759 398.344 141.325 398.368Z" fill="black"/>
<path d="M156.593 395.728C157.414 395.662 158.24 395.763 159.021 396.023C159.802 396.284 160.523 396.699 161.14 397.244C162.223 398.525 162.756 400.181 162.624 401.853V409.166C162.636 409.401 162.599 409.637 162.516 409.857C162.433 410.078 162.305 410.278 162.14 410.447C161.963 410.608 161.756 410.732 161.531 410.813C161.306 410.893 161.067 410.928 160.828 410.916C160.593 410.925 160.358 410.887 160.138 410.804C159.918 410.721 159.717 410.594 159.547 410.432C159.379 410.268 159.248 410.071 159.162 409.852C159.076 409.634 159.037 409.4 159.047 409.166V408.509C158.723 409.277 158.157 409.919 157.436 410.337C156.669 410.784 155.793 411.011 154.905 410.993C153.98 411.005 153.066 410.802 152.233 410.4C151.469 410.03 150.817 409.464 150.343 408.759C149.887 408.063 149.648 407.247 149.656 406.415C149.6 405.493 149.894 404.583 150.48 403.868C151.214 403.146 152.154 402.671 153.171 402.509C154.86 402.187 156.578 402.046 158.296 402.087H159.046V401.4C159.111 400.633 158.888 399.87 158.421 399.259C158.147 399.008 157.823 398.817 157.47 398.699C157.118 398.58 156.744 398.537 156.374 398.572C155.776 398.576 155.181 398.666 154.608 398.838C154.014 399.006 153.308 399.252 152.483 399.572C152.133 399.778 151.745 399.911 151.342 399.963C151.174 399.969 151.006 399.937 150.852 399.869C150.698 399.802 150.561 399.7 150.451 399.572C150.213 399.289 150.091 398.928 150.108 398.559C150.099 398.244 150.186 397.933 150.358 397.668C150.588 397.373 150.882 397.134 151.217 396.968C152.004 396.551 152.845 396.246 153.717 396.062C154.66 395.845 155.625 395.733 156.593 395.728ZM155.655 408.306C156.109 408.323 156.562 408.243 156.982 408.07C157.403 407.898 157.782 407.637 158.093 407.306C158.74 406.595 159.083 405.658 159.046 404.697V404.072H158.515C157.47 404.052 156.424 404.115 155.389 404.259C154.808 404.309 154.255 404.526 153.795 404.884C153.635 405.042 153.51 405.233 153.429 405.443C153.349 405.653 153.313 405.878 153.326 406.103C153.316 406.401 153.371 406.698 153.487 406.974C153.603 407.249 153.778 407.496 153.998 407.697C154.451 408.106 155.045 408.324 155.655 408.306Z" fill="black"/>
<path d="M167.692 410.947C167.201 410.966 166.721 410.798 166.348 410.478C166.17 410.305 166.032 410.095 165.943 409.863C165.854 409.631 165.816 409.382 165.832 409.134V391.228C165.814 390.985 165.851 390.74 165.941 390.513C166.03 390.286 166.169 390.082 166.348 389.916C166.725 389.604 167.203 389.442 167.692 389.459C168.18 389.442 168.658 389.603 169.036 389.912C169.223 390.074 169.369 390.277 169.463 390.506C169.558 390.734 169.597 390.982 169.579 391.228V409.134C169.595 409.384 169.554 409.635 169.46 409.868C169.366 410.101 169.221 410.309 169.035 410.478C168.662 410.797 168.183 410.964 167.692 410.947Z" fill="black"/>
<path d="M180.462 408.15C181.462 408.213 181.962 408.661 181.962 409.494C181.971 409.711 181.923 409.927 181.821 410.119C181.719 410.311 181.569 410.473 181.384 410.588C180.873 410.865 180.29 410.979 179.712 410.915L178.912 410.853C175.547 410.614 173.865 408.812 173.868 405.447V398.916H172.368C171.922 398.948 171.48 398.821 171.118 398.559C170.972 398.424 170.859 398.259 170.787 398.074C170.714 397.889 170.684 397.691 170.699 397.493C170.686 397.298 170.717 397.103 170.79 396.921C170.863 396.74 170.976 396.578 171.121 396.446C171.483 396.185 171.925 396.058 172.371 396.087H173.871V393.321C173.861 393.084 173.9 392.848 173.986 392.628C174.072 392.407 174.203 392.207 174.371 392.04C174.753 391.706 175.251 391.533 175.758 391.559C176.003 391.547 176.248 391.584 176.478 391.667C176.709 391.75 176.921 391.878 177.102 392.043C177.274 392.208 177.409 392.407 177.498 392.628C177.587 392.849 177.628 393.086 177.618 393.324V396.09H180.165C180.611 396.062 181.052 396.189 181.415 396.449C181.563 396.579 181.68 396.74 181.755 396.922C181.831 397.103 181.865 397.3 181.853 397.496C181.866 397.695 181.834 397.894 181.758 398.078C181.683 398.263 181.565 398.427 181.416 398.559C181.054 398.821 180.612 398.948 180.166 398.918H177.618V405.718C177.618 407.21 178.298 407.999 179.665 408.093L180.462 408.15Z" fill="black"/>
<path d="M191.9 395.728C195.337 395.728 197.056 397.738 197.056 401.759V409.134C197.069 409.378 197.031 409.622 196.945 409.85C196.859 410.079 196.727 410.287 196.556 410.462C196.373 410.629 196.159 410.759 195.926 410.842C195.692 410.925 195.444 410.96 195.197 410.946C194.688 410.971 194.189 410.796 193.807 410.459C193.635 410.285 193.502 410.077 193.416 409.848C193.33 409.619 193.293 409.375 193.307 409.131V401.759C193.376 400.932 193.149 400.106 192.666 399.431C192.401 399.169 192.082 398.967 191.731 398.84C191.381 398.714 191.007 398.665 190.635 398.697C190.154 398.677 189.675 398.758 189.228 398.936C188.781 399.113 188.377 399.383 188.041 399.728C187.369 400.47 187.02 401.448 187.069 402.447V409.135C187.082 409.379 187.043 409.624 186.955 409.852C186.867 410.08 186.731 410.287 186.557 410.459C186.181 410.797 185.687 410.973 185.182 410.947C184.932 410.96 184.682 410.924 184.446 410.84C184.21 410.756 183.993 410.627 183.807 410.459C183.64 410.282 183.511 410.073 183.428 409.845C183.345 409.617 183.309 409.374 183.323 409.131V391.197C183.313 390.964 183.354 390.731 183.443 390.515C183.532 390.299 183.667 390.105 183.839 389.947C184.218 389.615 184.709 389.44 185.213 389.459C185.702 389.435 186.182 389.596 186.557 389.912C186.729 390.064 186.865 390.252 186.954 390.464C187.042 390.676 187.082 390.905 187.069 391.134V398.134C187.552 397.368 188.239 396.751 189.053 396.353C189.94 395.925 190.915 395.711 191.9 395.728Z" fill="black"/>
<path d="M210.507 396.868C210.631 396.541 210.856 396.261 211.148 396.068C211.411 395.905 211.714 395.818 212.023 395.818C212.483 395.815 212.928 395.982 213.273 396.287C213.451 396.422 213.595 396.597 213.692 396.798C213.79 396.999 213.839 397.22 213.836 397.443C213.831 397.684 213.766 397.92 213.649 398.131L205.46 415.29C205.326 415.599 205.103 415.861 204.819 416.042C204.535 416.223 204.203 416.315 203.866 416.306C203.421 416.31 202.988 416.155 202.647 415.869C202.482 415.739 202.349 415.573 202.26 415.383C202.17 415.193 202.126 414.985 202.131 414.775C202.139 414.516 202.197 414.261 202.303 414.025L204.35 409.743L198.772 398.134C198.667 397.92 198.615 397.685 198.619 397.447C198.617 397.22 198.668 396.996 198.768 396.792C198.868 396.588 199.015 396.411 199.197 396.275C199.574 395.96 200.05 395.789 200.541 395.791C200.868 395.787 201.188 395.88 201.463 396.057C201.76 396.244 201.994 396.516 202.135 396.838L206.335 406.104L210.507 396.868Z" fill="black"/>
<path d="M225.229 410.947C224.971 410.958 224.713 410.915 224.472 410.821C224.231 410.726 224.012 410.583 223.829 410.4C223.478 410.018 223.292 409.512 223.313 408.994V391.447C223.298 391.2 223.333 390.952 223.416 390.718C223.499 390.484 223.629 390.27 223.797 390.088C223.983 389.921 224.2 389.792 224.436 389.709C224.672 389.626 224.922 389.59 225.172 389.604H235.701C236.92 389.604 237.529 390.128 237.529 391.167C237.529 392.191 236.92 392.698 235.701 392.698H227.123V398.459H235.092C236.319 398.459 236.936 398.982 236.936 400.022C236.936 401.045 236.319 401.553 235.092 401.553H227.123V408.99C227.145 409.51 226.959 410.017 226.607 410.4C226.429 410.583 226.214 410.727 225.977 410.821C225.739 410.915 225.484 410.958 225.229 410.947Z" fill="black"/>
<path d="M246.05 410.993C244.676 411.025 243.316 410.708 242.097 410.072C240.981 409.456 240.068 408.527 239.472 407.4C238.834 406.148 238.517 404.758 238.55 403.353C238.516 401.953 238.833 400.568 239.472 399.322C240.067 398.198 240.98 397.274 242.097 396.666C243.313 396.021 244.674 395.699 246.05 395.729C247.421 395.698 248.777 396.021 249.987 396.667C251.105 397.268 252.015 398.194 252.596 399.323C253.233 400.569 253.55 401.955 253.518 403.354C253.549 404.758 253.233 406.149 252.596 407.401C252.014 408.533 251.105 409.463 249.987 410.072C248.774 410.709 247.419 411.026 246.05 410.993ZM246.018 408.087C246.542 408.121 247.067 408.031 247.55 407.825C248.033 407.619 248.461 407.302 248.799 406.9C249.515 405.862 249.856 404.611 249.768 403.353C249.851 402.101 249.51 400.857 248.799 399.822C248.471 399.415 248.05 399.092 247.572 398.88C247.093 398.668 246.571 398.573 246.049 398.603C245.522 398.574 244.996 398.67 244.513 398.882C244.03 399.093 243.604 399.415 243.268 399.822C242.556 400.856 242.214 402.1 242.299 403.353C242.21 404.609 242.546 405.858 243.252 406.9C243.589 407.299 244.014 407.615 244.495 407.821C244.975 408.027 245.496 408.118 246.018 408.087Z" fill="black"/>
<path d="M262.7 410.993C261.326 411.025 259.966 410.708 258.747 410.072C257.631 409.456 256.718 408.527 256.122 407.4C255.484 406.148 255.167 404.758 255.2 403.353C255.166 401.953 255.483 400.568 256.122 399.322C256.717 398.198 257.63 397.274 258.747 396.666C259.963 396.021 261.324 395.699 262.7 395.729C264.071 395.698 265.427 396.021 266.637 396.667C267.755 397.268 268.665 398.194 269.246 399.323C269.883 400.569 270.2 401.955 270.168 403.354C270.199 404.758 269.883 406.149 269.246 407.401C268.664 408.533 267.755 409.463 266.637 410.072C265.424 410.709 264.069 411.026 262.7 410.993ZM262.668 408.087C263.192 408.121 263.717 408.031 264.2 407.825C264.683 407.619 265.111 407.302 265.449 406.9C266.165 405.862 266.506 404.611 266.418 403.353C266.501 402.101 266.16 400.857 265.449 399.822C265.121 399.415 264.7 399.092 264.222 398.88C263.743 398.668 263.221 398.573 262.699 398.603C262.172 398.574 261.646 398.67 261.163 398.882C260.68 399.093 260.254 399.415 259.918 399.822C259.206 400.856 258.864 402.1 258.949 403.353C258.86 404.609 259.196 405.858 259.902 406.9C260.239 407.299 260.664 407.615 261.145 407.821C261.625 408.027 262.146 408.118 262.668 408.087Z" fill="black"/>
<path d="M284.897 389.459C285.4 389.439 285.892 389.612 286.272 389.943C286.451 390.097 286.594 390.289 286.688 390.505C286.783 390.722 286.828 390.957 286.819 391.193V409.134C286.831 409.375 286.791 409.616 286.702 409.84C286.613 410.064 286.477 410.267 286.303 410.434C286.122 410.599 285.91 410.727 285.679 410.81C285.449 410.892 285.204 410.928 284.959 410.915C284.46 410.939 283.972 410.765 283.6 410.431C283.43 410.262 283.298 410.058 283.211 409.834C283.125 409.61 283.087 409.371 283.1 409.131V408.381C282.67 409.198 282.006 409.869 281.193 410.306C280.324 410.772 279.351 411.008 278.365 410.993C277.171 411.013 275.997 410.681 274.99 410.04C273.978 409.371 273.176 408.429 272.678 407.322C272.103 406.057 271.82 404.68 271.85 403.291C271.818 401.917 272.101 400.554 272.678 399.307C273.176 398.224 273.974 397.308 274.978 396.666C275.993 396.031 277.172 395.705 278.369 395.729C279.348 395.713 280.316 395.944 281.182 396.401C281.98 396.816 282.638 397.458 283.073 398.245V391.136C283.064 390.913 283.102 390.691 283.186 390.484C283.269 390.277 283.396 390.09 283.557 389.936C283.924 389.608 284.405 389.437 284.897 389.459ZM279.35 408.087C279.874 408.116 280.398 408.021 280.879 407.809C281.36 407.597 281.784 407.275 282.116 406.868C282.834 405.842 283.181 404.602 283.1 403.352C283.182 402.107 282.835 400.872 282.116 399.852C281.789 399.448 281.37 399.127 280.895 398.915C280.42 398.703 279.902 398.606 279.382 398.633C278.854 398.604 278.327 398.698 277.842 398.906C277.356 399.114 276.925 399.431 276.582 399.833C275.865 400.836 275.517 402.056 275.598 403.286C275.521 404.545 275.867 405.794 276.582 406.833C276.911 407.247 277.333 407.576 277.815 407.794C278.296 408.012 278.822 408.112 279.35 408.087Z" fill="black"/>
<path d="M295.405 410.993C293.558 411.081 291.725 410.636 290.123 409.712C289.826 409.558 289.578 409.325 289.407 409.038C289.235 408.751 289.148 408.421 289.154 408.087C289.139 407.734 289.256 407.389 289.482 407.118C289.582 407 289.707 406.906 289.847 406.841C289.988 406.776 290.14 406.743 290.295 406.743C290.793 406.791 291.274 406.952 291.701 407.212C292.273 407.486 292.863 407.72 293.467 407.912C294.125 408.084 294.803 408.163 295.483 408.146C296.165 408.183 296.845 408.037 297.452 407.724C297.665 407.612 297.844 407.444 297.967 407.237C298.091 407.03 298.155 406.793 298.152 406.552C298.166 406.261 298.066 405.977 297.873 405.759C297.584 405.494 297.235 405.301 296.857 405.197C296.365 405.033 295.623 404.834 294.623 404.603C293.243 404.417 291.928 403.897 290.795 403.087C290.409 402.748 290.105 402.326 289.904 401.852C289.704 401.379 289.614 400.866 289.639 400.353C289.63 399.491 289.904 398.65 290.42 397.959C290.971 397.228 291.711 396.66 292.561 396.318C293.546 395.909 294.604 395.707 295.67 395.724C296.488 395.722 297.302 395.827 298.092 396.037C298.839 396.232 299.551 396.543 300.201 396.959C300.488 397.114 300.729 397.345 300.897 397.625C301.064 397.906 301.153 398.226 301.154 398.553C301.166 398.915 301.05 399.269 300.826 399.553C300.732 399.68 300.61 399.783 300.469 399.853C300.328 399.924 300.172 399.96 300.014 399.959C299.794 399.96 299.576 399.918 299.373 399.834C299.099 399.708 298.832 399.567 298.573 399.412C298.088 399.157 297.587 398.932 297.073 398.74C296.568 398.582 296.04 398.508 295.511 398.521C294.895 398.487 294.283 398.646 293.761 398.974C293.558 399.104 293.392 399.285 293.279 399.499C293.167 399.712 293.112 399.952 293.12 400.193C293.112 400.425 293.169 400.655 293.285 400.857C293.401 401.059 293.571 401.224 293.776 401.334C294.583 401.716 295.441 401.979 296.323 402.115C297.409 402.316 298.468 402.641 299.479 403.084C300.142 403.36 300.708 403.828 301.104 404.428C301.458 405.056 301.631 405.77 301.604 406.491C301.618 407.136 301.469 407.775 301.172 408.348C300.875 408.921 300.439 409.411 299.904 409.772C298.571 410.645 296.996 411.072 295.405 410.993Z" fill="black"/>
<path d="M115.234 431.872C115.174 431.874 115.114 431.865 115.057 431.843C115.001 431.822 114.949 431.789 114.906 431.747C114.821 431.653 114.776 431.53 114.781 431.403V424.825H112.422C112.31 424.833 112.199 424.799 112.11 424.731C112.072 424.691 112.042 424.644 112.024 424.593C112.005 424.541 111.997 424.486 112.001 424.431C111.997 424.379 112.004 424.327 112.023 424.278C112.042 424.229 112.072 424.186 112.11 424.15C112.199 424.083 112.31 424.05 112.422 424.059H118.062C118.17 424.053 118.277 424.086 118.362 424.153C118.399 424.189 118.429 424.233 118.447 424.281C118.466 424.33 118.474 424.382 118.471 424.434C118.474 424.489 118.466 424.544 118.447 424.595C118.428 424.647 118.399 424.694 118.362 424.734C118.277 424.801 118.17 424.834 118.062 424.828H115.687V431.403C115.69 431.529 115.646 431.652 115.562 431.747C115.52 431.79 115.468 431.824 115.412 431.845C115.355 431.867 115.294 431.876 115.234 431.872Z" fill="black"/>
<path d="M125.465 423.997C125.525 423.993 125.586 424.002 125.643 424.024C125.699 424.045 125.751 424.079 125.793 424.122C125.869 424.22 125.907 424.342 125.902 424.466V431.403C125.905 431.527 125.867 431.648 125.793 431.747C125.751 431.79 125.699 431.824 125.643 431.845C125.586 431.867 125.525 431.876 125.465 431.872C125.405 431.874 125.345 431.865 125.288 431.843C125.232 431.822 125.18 431.789 125.137 431.747C125.052 431.653 125.007 431.53 125.012 431.403V428.262H120.371V431.403C120.374 431.529 120.33 431.652 120.246 431.747C120.204 431.79 120.152 431.824 120.096 431.845C120.039 431.867 119.978 431.876 119.918 431.872C119.858 431.874 119.798 431.865 119.741 431.843C119.685 431.822 119.633 431.789 119.59 431.747C119.514 431.649 119.476 431.527 119.48 431.403V424.465C119.472 424.341 119.511 424.218 119.589 424.121C119.632 424.079 119.684 424.046 119.74 424.025C119.797 424.003 119.857 423.994 119.917 423.996C119.977 423.992 120.038 424.001 120.095 424.023C120.151 424.044 120.203 424.078 120.245 424.121C120.288 424.167 120.32 424.221 120.342 424.281C120.363 424.34 120.373 424.402 120.37 424.465V427.481H125.011V424.465C125.007 424.402 125.016 424.339 125.038 424.28C125.059 424.221 125.093 424.167 125.136 424.121C125.18 424.079 125.231 424.046 125.288 424.025C125.344 424.004 125.405 423.994 125.465 423.997Z" fill="black"/>
<path d="M128.281 431.809C128.157 431.818 128.034 431.779 127.937 431.7C127.894 431.657 127.861 431.606 127.84 431.549C127.818 431.493 127.809 431.432 127.812 431.372V424.497C127.808 424.439 127.818 424.381 127.839 424.327C127.861 424.273 127.894 424.224 127.937 424.185C127.983 424.142 128.037 424.109 128.096 424.087C128.155 424.066 128.218 424.056 128.281 424.06H132.39C132.502 424.053 132.613 424.087 132.703 424.154C132.74 424.19 132.77 424.234 132.788 424.283C132.807 424.331 132.815 424.383 132.812 424.435C132.814 424.487 132.805 424.538 132.786 424.587C132.768 424.635 132.739 424.679 132.703 424.716C132.613 424.783 132.502 424.816 132.39 424.809H128.703V427.497H132.172C132.287 427.491 132.399 427.53 132.485 427.606C132.521 427.64 132.55 427.681 132.569 427.727C132.588 427.773 132.596 427.822 132.594 427.872C132.596 427.924 132.587 427.975 132.568 428.024C132.55 428.072 132.521 428.116 132.485 428.153C132.395 428.22 132.285 428.254 132.173 428.247H128.703V431.059H132.39C132.502 431.052 132.613 431.086 132.703 431.153C132.74 431.189 132.77 431.233 132.788 431.282C132.807 431.33 132.815 431.382 132.812 431.434C132.814 431.486 132.805 431.537 132.786 431.586C132.768 431.634 132.739 431.678 132.703 431.715C132.613 431.782 132.502 431.816 132.39 431.809H128.281Z" fill="black"/>
<path d="M142.811 427.778C142.859 427.775 142.908 427.782 142.954 427.798C142.999 427.814 143.041 427.839 143.077 427.872C143.114 427.908 143.144 427.952 143.162 428C143.181 428.049 143.189 428.101 143.186 428.153V430.887C143.193 431.027 143.167 431.166 143.108 431.293C143.03 431.394 142.92 431.464 142.796 431.493C142.455 431.634 142.098 431.735 141.734 431.793C141.321 431.864 140.903 431.9 140.484 431.902C139.788 431.92 139.099 431.759 138.484 431.433C137.93 431.112 137.483 430.634 137.201 430.059C136.892 429.389 136.743 428.656 136.764 427.918C136.745 427.191 136.895 426.469 137.201 425.809C137.472 425.235 137.914 424.76 138.467 424.45C139.058 424.118 139.727 423.951 140.405 423.966C140.889 423.962 141.37 424.041 141.827 424.2C142.246 424.341 142.629 424.571 142.952 424.872C143.008 424.921 143.053 424.981 143.086 425.048C143.118 425.116 143.136 425.189 143.14 425.263C143.141 425.365 143.108 425.464 143.046 425.544C143.02 425.578 142.987 425.605 142.949 425.624C142.911 425.643 142.869 425.653 142.827 425.653C142.709 425.642 142.599 425.592 142.514 425.509C142.202 425.257 141.855 425.052 141.483 424.9C141.142 424.781 140.782 424.723 140.421 424.728C140.044 424.705 139.667 424.767 139.318 424.911C138.969 425.054 138.657 425.275 138.405 425.556C137.898 426.234 137.65 427.07 137.705 427.915C137.644 428.775 137.892 429.628 138.405 430.321C138.673 430.602 138.999 430.821 139.361 430.961C139.723 431.102 140.112 431.161 140.499 431.134C141.132 431.145 141.762 431.041 142.358 430.825V428.481H140.748C140.64 428.485 140.534 428.452 140.448 428.387C140.412 428.353 140.384 428.311 140.365 428.266C140.346 428.22 140.337 428.17 140.339 428.121C140.337 428.074 140.346 428.027 140.365 427.983C140.384 427.94 140.412 427.902 140.448 427.871C140.534 427.806 140.64 427.773 140.748 427.777L142.811 427.778Z" fill="black"/>
<path d="M150.925 431.247C150.973 431.322 151 431.408 151.003 431.497C151.005 431.55 150.994 431.603 150.973 431.652C150.951 431.7 150.919 431.744 150.878 431.778C150.791 431.841 150.686 431.875 150.578 431.872C150.499 431.875 150.421 431.855 150.352 431.817C150.283 431.778 150.226 431.722 150.187 431.653L148.706 429.325C148.563 429.071 148.358 428.856 148.112 428.7C147.855 428.573 147.57 428.514 147.284 428.528H145.894V431.403C145.897 431.529 145.853 431.652 145.769 431.747C145.729 431.789 145.681 431.822 145.627 431.844C145.573 431.865 145.515 431.875 145.457 431.872C145.397 431.874 145.337 431.865 145.28 431.843C145.224 431.822 145.172 431.789 145.129 431.747C145.044 431.653 144.998 431.53 145.003 431.403V424.497C144.999 424.439 145.009 424.381 145.03 424.327C145.052 424.273 145.085 424.224 145.128 424.185C145.174 424.142 145.228 424.109 145.287 424.087C145.346 424.066 145.409 424.056 145.472 424.06H148.191C148.883 424.014 149.569 424.213 150.129 424.623C150.359 424.827 150.539 425.08 150.655 425.364C150.772 425.649 150.821 425.956 150.8 426.262C150.812 426.534 150.769 426.805 150.675 427.06C150.581 427.315 150.436 427.549 150.25 427.747C149.842 428.148 149.305 428.392 148.734 428.435C148.92 428.499 149.09 428.601 149.234 428.735C149.403 428.891 149.551 429.07 149.672 429.266L150.925 431.247ZM148.113 427.778C148.591 427.815 149.067 427.682 149.457 427.403C149.613 427.262 149.735 427.088 149.814 426.893C149.892 426.698 149.925 426.488 149.91 426.278C149.926 426.072 149.895 425.865 149.819 425.673C149.743 425.481 149.625 425.309 149.473 425.169C149.073 424.899 148.594 424.772 148.113 424.809H145.894V427.778H148.113Z" fill="black"/>
<path d="M153.013 431.809C152.889 431.818 152.766 431.779 152.669 431.7C152.626 431.657 152.593 431.606 152.572 431.549C152.55 431.493 152.541 431.432 152.544 431.372V424.497C152.54 424.439 152.55 424.381 152.571 424.327C152.593 424.273 152.626 424.224 152.669 424.185C152.715 424.142 152.769 424.109 152.828 424.087C152.887 424.066 152.95 424.056 153.013 424.06H157.122C157.234 424.053 157.345 424.087 157.435 424.154C157.472 424.19 157.502 424.234 157.52 424.283C157.539 424.331 157.547 424.383 157.544 424.435C157.546 424.487 157.537 424.538 157.518 424.587C157.5 424.635 157.471 424.679 157.435 424.716C157.345 424.783 157.234 424.816 157.122 424.809H153.435V427.497H156.904C157.019 427.491 157.131 427.53 157.217 427.606C157.253 427.64 157.282 427.681 157.301 427.727C157.32 427.773 157.328 427.822 157.326 427.872C157.328 427.924 157.319 427.975 157.3 428.024C157.282 428.072 157.253 428.116 157.217 428.153C157.127 428.22 157.017 428.254 156.905 428.247H153.435V431.059H157.122C157.234 431.052 157.345 431.086 157.435 431.153C157.472 431.189 157.502 431.233 157.52 431.282C157.539 431.33 157.547 431.382 157.544 431.434C157.546 431.486 157.537 431.537 157.518 431.586C157.5 431.634 157.471 431.678 157.435 431.715C157.345 431.782 157.234 431.816 157.122 431.809H153.013Z" fill="black"/>
<path d="M165.63 431.293C165.65 431.354 165.66 431.417 165.661 431.481C165.66 431.534 165.649 431.586 165.627 431.634C165.606 431.683 165.575 431.726 165.536 431.762C165.452 431.833 165.346 431.872 165.236 431.871C165.152 431.876 165.068 431.853 164.998 431.805C164.928 431.758 164.875 431.689 164.848 431.609L164.067 429.825H159.927L159.13 431.609C159.104 431.688 159.054 431.756 158.986 431.803C158.919 431.851 158.838 431.875 158.755 431.872C158.636 431.873 158.521 431.834 158.427 431.762C158.386 431.724 158.353 431.677 158.332 431.626C158.31 431.574 158.3 431.518 158.302 431.462C158.304 431.403 158.32 431.345 158.348 431.293L161.504 424.293C161.538 424.197 161.603 424.115 161.689 424.059C161.781 424.008 161.884 423.981 161.989 423.981C162.09 423.981 162.189 424.014 162.27 424.075C162.358 424.125 162.428 424.202 162.47 424.294L165.63 431.293ZM160.255 429.075H163.739L161.989 425.122L160.255 429.075Z" fill="black"/>
<path d="M169.261 431.872C169.201 431.874 169.141 431.865 169.084 431.843C169.028 431.822 168.976 431.789 168.933 431.747C168.848 431.653 168.803 431.53 168.808 431.403V424.825H166.449C166.337 424.833 166.226 424.799 166.137 424.731C166.099 424.691 166.069 424.644 166.051 424.593C166.032 424.541 166.024 424.486 166.028 424.431C166.024 424.379 166.031 424.327 166.05 424.278C166.069 424.229 166.099 424.186 166.137 424.15C166.226 424.083 166.337 424.05 166.449 424.059H172.089C172.197 424.053 172.304 424.086 172.389 424.153C172.426 424.189 172.456 424.233 172.474 424.281C172.493 424.33 172.501 424.382 172.498 424.434C172.501 424.489 172.493 424.544 172.474 424.595C172.455 424.647 172.426 424.694 172.389 424.734C172.304 424.801 172.197 424.834 172.089 424.828H169.714V431.403C169.717 431.529 169.673 431.652 169.589 431.747C169.547 431.79 169.495 431.824 169.439 431.845C169.382 431.867 169.321 431.876 169.261 431.872Z" fill="black"/>
<path d="M173.975 431.809C173.851 431.818 173.728 431.779 173.631 431.7C173.588 431.657 173.555 431.606 173.534 431.549C173.512 431.493 173.503 431.432 173.506 431.372V424.497C173.502 424.439 173.512 424.381 173.533 424.327C173.555 424.273 173.588 424.224 173.631 424.185C173.677 424.142 173.731 424.109 173.79 424.087C173.849 424.066 173.912 424.056 173.975 424.06H178.084C178.196 424.053 178.307 424.087 178.397 424.154C178.434 424.19 178.464 424.234 178.482 424.283C178.501 424.331 178.509 424.383 178.506 424.435C178.508 424.487 178.499 424.538 178.48 424.587C178.462 424.635 178.433 424.679 178.397 424.716C178.307 424.783 178.196 424.816 178.084 424.809H174.397V427.497H177.866C177.981 427.491 178.093 427.53 178.179 427.606C178.215 427.64 178.244 427.681 178.263 427.727C178.282 427.773 178.29 427.822 178.288 427.872C178.29 427.924 178.281 427.975 178.262 428.024C178.244 428.072 178.215 428.116 178.179 428.153C178.089 428.22 177.979 428.254 177.867 428.247H174.397V431.059H178.084C178.196 431.052 178.307 431.086 178.397 431.153C178.434 431.189 178.464 431.233 178.482 431.282C178.501 431.33 178.509 431.382 178.506 431.434C178.508 431.486 178.499 431.537 178.48 431.586C178.462 431.634 178.433 431.678 178.397 431.715C178.307 431.782 178.196 431.816 178.084 431.809H173.975Z" fill="black"/>
<path d="M182.389 431.903C181.848 431.904 181.31 431.82 180.795 431.653C180.353 431.522 179.947 431.292 179.607 430.981C179.552 430.936 179.508 430.879 179.479 430.815C179.449 430.75 179.434 430.68 179.435 430.609C179.431 430.514 179.459 430.421 179.513 430.343C179.537 430.306 179.569 430.275 179.607 430.253C179.645 430.232 179.688 430.219 179.732 430.218C179.847 430.227 179.956 430.27 180.045 430.343C180.709 430.861 181.531 431.136 182.373 431.124C182.878 431.157 183.38 431.031 183.81 430.765C183.977 430.652 184.112 430.497 184.203 430.317C184.293 430.136 184.336 429.936 184.326 429.734C184.33 429.618 184.31 429.503 184.267 429.395C184.224 429.287 184.159 429.19 184.076 429.109C183.898 428.939 183.684 428.81 183.451 428.731C183.103 428.612 182.748 428.512 182.389 428.431C181.885 428.318 181.39 428.172 180.905 427.994C180.544 427.855 180.222 427.63 179.968 427.338C179.717 427.019 179.589 426.621 179.607 426.215C179.597 425.796 179.723 425.385 179.966 425.043C180.217 424.687 180.564 424.41 180.966 424.243C181.431 424.048 181.931 423.952 182.435 423.962C182.924 423.959 183.41 424.038 183.872 424.196C184.287 424.335 184.666 424.564 184.981 424.868C185.037 424.917 185.082 424.977 185.115 425.044C185.147 425.112 185.165 425.185 185.169 425.259C185.17 425.361 185.137 425.46 185.075 425.54C185.052 425.572 185.022 425.598 184.987 425.617C184.953 425.636 184.914 425.647 184.875 425.649C184.756 425.639 184.643 425.595 184.547 425.524C184.248 425.269 183.911 425.063 183.547 424.915C183.193 424.781 182.816 424.718 182.438 424.728C181.934 424.7 181.435 424.837 181.016 425.119C180.852 425.241 180.72 425.402 180.633 425.588C180.546 425.773 180.505 425.977 180.516 426.182C180.505 426.353 180.54 426.525 180.616 426.679C180.693 426.832 180.808 426.964 180.951 427.059C181.381 427.296 181.845 427.465 182.326 427.559C182.99 427.727 183.514 427.879 183.889 428.012C184.251 428.135 184.578 428.344 184.842 428.621C185.111 428.92 185.252 429.313 185.233 429.715C185.239 430.124 185.112 430.524 184.873 430.856C184.609 431.198 184.258 431.462 183.857 431.622C183.392 431.816 182.893 431.912 182.389 431.903Z" fill="black"/>
<path d="M189.014 431.872C188.954 431.874 188.894 431.865 188.837 431.843C188.781 431.822 188.729 431.789 188.686 431.747C188.601 431.653 188.556 431.53 188.561 431.403V424.825H186.202C186.09 424.833 185.979 424.799 185.89 424.731C185.852 424.691 185.822 424.644 185.804 424.593C185.785 424.541 185.777 424.486 185.781 424.431C185.777 424.379 185.784 424.327 185.803 424.278C185.822 424.229 185.852 424.186 185.89 424.15C185.979 424.083 186.09 424.05 186.202 424.059H191.842C191.95 424.053 192.057 424.086 192.142 424.153C192.179 424.189 192.209 424.233 192.227 424.281C192.246 424.33 192.254 424.382 192.251 424.434C192.254 424.489 192.246 424.544 192.227 424.595C192.208 424.647 192.179 424.694 192.142 424.734C192.057 424.801 191.95 424.834 191.842 424.828H189.467V431.403C189.47 431.529 189.426 431.652 189.342 431.747C189.3 431.79 189.248 431.824 189.192 431.845C189.135 431.867 189.074 431.876 189.014 431.872Z" fill="black"/>
<path d="M206.017 424.278C206.034 424.189 206.084 424.111 206.158 424.059C206.231 424.007 206.319 423.98 206.408 423.981C206.518 423.98 206.624 424.019 206.708 424.09C206.748 424.125 206.78 424.168 206.802 424.217C206.823 424.265 206.834 424.318 206.833 424.371C206.832 424.43 206.821 424.488 206.802 424.543L204.314 431.559C204.3 431.609 204.277 431.655 204.245 431.695C204.213 431.736 204.173 431.769 204.127 431.793C204.036 431.846 203.932 431.873 203.827 431.871C203.722 431.871 203.619 431.844 203.527 431.793C203.443 431.74 203.384 431.656 203.361 431.559L201.205 425.465L199.033 431.559C198.996 431.658 198.925 431.741 198.833 431.793C198.748 431.844 198.651 431.871 198.552 431.871C198.447 431.871 198.344 431.844 198.252 431.793C198.166 431.741 198.104 431.657 198.08 431.559L195.58 424.543C195.558 424.494 195.548 424.441 195.549 424.387C195.549 424.333 195.561 424.28 195.586 424.231C195.61 424.183 195.645 424.141 195.689 424.109C195.774 424.029 195.886 423.985 196.002 423.984C196.086 423.985 196.168 424.013 196.236 424.062C196.317 424.113 196.378 424.19 196.408 424.281L198.58 430.531L200.767 424.34C200.797 424.241 200.857 424.153 200.939 424.09C201.023 424.037 201.121 424.009 201.22 424.009C201.312 424.009 201.401 424.042 201.47 424.103C201.558 424.164 201.624 424.252 201.658 424.353L203.814 430.543L206.017 424.278Z" fill="black"/>
<path d="M208.667 431.809C208.543 431.818 208.42 431.779 208.323 431.7C208.28 431.657 208.247 431.606 208.226 431.549C208.204 431.493 208.195 431.432 208.198 431.372V424.497C208.194 424.439 208.204 424.381 208.225 424.327C208.247 424.273 208.28 424.224 208.323 424.185C208.369 424.142 208.423 424.109 208.482 424.087C208.541 424.066 208.604 424.056 208.667 424.06H212.776C212.888 424.053 212.999 424.087 213.089 424.154C213.126 424.19 213.156 424.234 213.174 424.283C213.193 424.331 213.201 424.383 213.198 424.435C213.2 424.487 213.191 424.538 213.172 424.587C213.154 424.635 213.125 424.679 213.089 424.716C212.999 424.783 212.888 424.816 212.776 424.809H209.089V427.497H212.558C212.673 427.491 212.785 427.53 212.871 427.606C212.907 427.64 212.936 427.681 212.955 427.727C212.974 427.773 212.982 427.822 212.98 427.872C212.982 427.924 212.973 427.975 212.954 428.024C212.936 428.072 212.907 428.116 212.871 428.153C212.781 428.22 212.671 428.254 212.559 428.247H209.089V431.059H212.776C212.888 431.052 212.999 431.086 213.089 431.153C213.126 431.189 213.156 431.233 213.174 431.282C213.193 431.33 213.201 431.382 213.198 431.434C213.2 431.486 213.191 431.537 213.172 431.586C213.154 431.634 213.125 431.678 213.089 431.715C212.999 431.782 212.888 431.816 212.776 431.809H208.667Z" fill="black"/>
<path d="M221.283 431.293C221.303 431.354 221.313 431.417 221.314 431.481C221.313 431.534 221.302 431.586 221.28 431.634C221.259 431.683 221.228 431.726 221.189 431.762C221.105 431.833 220.999 431.872 220.889 431.871C220.805 431.876 220.721 431.853 220.651 431.805C220.581 431.758 220.528 431.689 220.501 431.609L219.72 429.825H215.58L214.783 431.609C214.757 431.688 214.707 431.756 214.639 431.803C214.572 431.851 214.491 431.875 214.408 431.872C214.29 431.873 214.174 431.834 214.08 431.762C214.039 431.724 214.006 431.677 213.985 431.626C213.963 431.574 213.953 431.518 213.955 431.462C213.957 431.403 213.973 431.345 214.001 431.293L217.157 424.293C217.192 424.197 217.256 424.115 217.342 424.059C217.434 424.008 217.537 423.981 217.642 423.981C217.743 423.981 217.842 424.014 217.923 424.075C218.011 424.125 218.081 424.202 218.123 424.294L221.283 431.293ZM215.908 429.075H219.392L217.642 425.122L215.908 429.075Z" fill="black"/>
<path d="M223.025 431.809C222.911 431.814 222.799 431.775 222.713 431.7C222.671 431.66 222.638 431.611 222.616 431.557C222.595 431.503 222.585 431.445 222.587 431.387V424.465C222.583 424.402 222.592 424.339 222.614 424.28C222.635 424.221 222.669 424.167 222.712 424.121C222.755 424.079 222.807 424.046 222.863 424.025C222.92 424.003 222.98 423.993 223.04 423.996C223.1 423.994 223.16 424.004 223.216 424.026C223.273 424.047 223.324 424.08 223.368 424.121C223.41 424.167 223.443 424.221 223.465 424.28C223.486 424.34 223.496 424.402 223.493 424.465V431.043H227.04C227.152 431.036 227.263 431.07 227.353 431.137C227.39 431.173 227.42 431.217 227.438 431.265C227.457 431.314 227.465 431.366 227.462 431.418C227.465 431.473 227.457 431.528 227.438 431.579C227.419 431.631 227.39 431.678 227.353 431.718C227.263 431.784 227.152 431.817 227.04 431.809H223.025Z" fill="black"/>
<path d="M230.85 431.872C230.79 431.874 230.73 431.865 230.673 431.843C230.617 431.822 230.565 431.789 230.522 431.747C230.437 431.653 230.392 431.53 230.397 431.403V424.825H228.038C227.926 424.833 227.815 424.799 227.726 424.731C227.688 424.691 227.658 424.644 227.64 424.593C227.621 424.541 227.613 424.486 227.617 424.431C227.613 424.379 227.62 424.327 227.639 424.278C227.658 424.229 227.688 424.186 227.726 424.15C227.815 424.083 227.926 424.05 228.038 424.059H233.678C233.786 424.053 233.893 424.086 233.978 424.153C234.015 424.189 234.045 424.233 234.063 424.281C234.082 424.33 234.09 424.382 234.087 424.434C234.09 424.489 234.082 424.544 234.063 424.595C234.044 424.647 234.015 424.694 233.978 424.734C233.893 424.801 233.786 424.834 233.678 424.828H231.303V431.403C231.306 431.529 231.262 431.652 231.178 431.747C231.136 431.79 231.084 431.824 231.028 431.845C230.971 431.867 230.91 431.876 230.85 431.872Z" fill="black"/>
<path d="M241.081 423.997C241.141 423.993 241.202 424.002 241.259 424.024C241.315 424.045 241.367 424.079 241.409 424.122C241.485 424.22 241.523 424.342 241.518 424.466V431.403C241.521 431.527 241.483 431.648 241.409 431.747C241.367 431.79 241.315 431.824 241.259 431.845C241.202 431.867 241.141 431.876 241.081 431.872C241.021 431.874 240.961 431.865 240.904 431.843C240.848 431.822 240.796 431.789 240.753 431.747C240.668 431.653 240.623 431.53 240.628 431.403V428.262H235.987V431.403C235.99 431.529 235.946 431.652 235.862 431.747C235.82 431.79 235.768 431.824 235.712 431.845C235.655 431.867 235.594 431.876 235.534 431.872C235.474 431.874 235.414 431.865 235.357 431.843C235.301 431.822 235.249 431.789 235.206 431.747C235.13 431.649 235.092 431.527 235.096 431.403V424.465C235.088 424.341 235.127 424.218 235.205 424.121C235.248 424.079 235.3 424.046 235.356 424.025C235.413 424.003 235.473 423.994 235.533 423.996C235.593 423.992 235.654 424.001 235.711 424.023C235.767 424.044 235.819 424.078 235.861 424.121C235.904 424.167 235.936 424.221 235.958 424.281C235.979 424.34 235.989 424.402 235.986 424.465V427.481H240.627V424.465C240.623 424.402 240.632 424.339 240.654 424.28C240.675 424.221 240.709 424.167 240.752 424.121C240.796 424.079 240.847 424.046 240.904 424.025C240.96 424.004 241.021 423.994 241.081 423.997Z" fill="black"/>
<path d="M246.717 431.872C246.657 431.874 246.597 431.865 246.54 431.843C246.484 431.822 246.432 431.789 246.389 431.747C246.304 431.653 246.259 431.53 246.264 431.403V424.465C246.26 424.402 246.269 424.339 246.291 424.28C246.312 424.221 246.346 424.167 246.389 424.121C246.432 424.079 246.484 424.046 246.54 424.025C246.597 424.003 246.657 423.993 246.717 423.996C246.777 423.994 246.837 424.004 246.893 424.026C246.95 424.047 247.001 424.08 247.045 424.121C247.088 424.167 247.12 424.221 247.142 424.28C247.163 424.34 247.173 424.402 247.17 424.465V431.403C247.173 431.529 247.129 431.652 247.045 431.747C247.001 431.788 246.95 431.821 246.893 431.842C246.837 431.864 246.777 431.874 246.717 431.872Z" fill="black"/>
<path d="M251.563 431.903C251.022 431.904 250.484 431.82 249.969 431.653C249.527 431.522 249.121 431.292 248.781 430.981C248.726 430.936 248.682 430.879 248.653 430.815C248.623 430.75 248.608 430.68 248.609 430.609C248.605 430.514 248.633 430.421 248.687 430.343C248.711 430.306 248.743 430.275 248.781 430.253C248.819 430.232 248.862 430.219 248.906 430.218C249.021 430.227 249.13 430.27 249.219 430.343C249.883 430.861 250.705 431.136 251.547 431.124C252.052 431.157 252.554 431.031 252.984 430.765C253.151 430.652 253.286 430.497 253.377 430.317C253.467 430.136 253.51 429.936 253.5 429.734C253.504 429.618 253.484 429.503 253.441 429.395C253.398 429.287 253.333 429.19 253.25 429.109C253.072 428.939 252.858 428.81 252.625 428.731C252.277 428.612 251.922 428.512 251.563 428.431C251.059 428.318 250.564 428.172 250.079 427.994C249.718 427.855 249.396 427.63 249.142 427.338C248.891 427.019 248.763 426.621 248.781 426.215C248.771 425.796 248.897 425.385 249.14 425.043C249.391 424.687 249.738 424.41 250.14 424.243C250.605 424.048 251.105 423.952 251.609 423.962C252.098 423.959 252.584 424.038 253.046 424.196C253.461 424.335 253.84 424.564 254.155 424.868C254.211 424.917 254.256 424.977 254.289 425.044C254.321 425.112 254.339 425.185 254.343 425.259C254.344 425.361 254.311 425.46 254.249 425.54C254.226 425.572 254.196 425.598 254.161 425.617C254.127 425.636 254.088 425.647 254.049 425.649C253.93 425.639 253.817 425.595 253.721 425.524C253.422 425.269 253.085 425.063 252.721 424.915C252.367 424.781 251.99 424.718 251.612 424.728C251.108 424.7 250.609 424.837 250.19 425.119C250.026 425.241 249.894 425.402 249.807 425.588C249.72 425.773 249.679 425.977 249.69 426.182C249.679 426.353 249.714 426.525 249.79 426.679C249.867 426.832 249.982 426.964 250.125 427.059C250.555 427.296 251.019 427.465 251.5 427.559C252.164 427.727 252.688 427.879 253.063 428.012C253.425 428.135 253.752 428.344 254.016 428.621C254.285 428.92 254.426 429.313 254.407 429.715C254.413 430.124 254.286 430.524 254.047 430.856C253.783 431.198 253.432 431.462 253.031 431.622C252.566 431.816 252.067 431.912 251.563 431.903Z" fill="black"/>
<path d="M264.681 423.997C264.741 423.993 264.802 424.002 264.859 424.024C264.915 424.045 264.967 424.079 265.009 424.122C265.085 424.22 265.123 424.342 265.118 424.466V431.403C265.121 431.527 265.083 431.648 265.009 431.747C264.967 431.79 264.915 431.824 264.859 431.845C264.802 431.867 264.741 431.876 264.681 431.872C264.621 431.874 264.561 431.865 264.504 431.843C264.448 431.822 264.396 431.789 264.353 431.747C264.268 431.653 264.223 431.53 264.228 431.403V428.262H259.587V431.403C259.59 431.529 259.546 431.652 259.462 431.747C259.42 431.79 259.368 431.824 259.312 431.845C259.255 431.867 259.194 431.876 259.134 431.872C259.074 431.874 259.014 431.865 258.957 431.843C258.901 431.822 258.849 431.789 258.806 431.747C258.73 431.649 258.691 431.527 258.696 431.403V424.465C258.688 424.341 258.727 424.218 258.805 424.121C258.848 424.079 258.9 424.046 258.956 424.025C259.013 424.003 259.073 423.994 259.133 423.996C259.193 423.992 259.254 424.001 259.311 424.023C259.367 424.044 259.419 424.078 259.461 424.121C259.503 424.167 259.536 424.221 259.558 424.281C259.579 424.34 259.589 424.402 259.586 424.465V427.481H264.227V424.465C264.223 424.402 264.232 424.339 264.254 424.28C264.275 424.221 264.309 424.167 264.352 424.121C264.396 424.079 264.447 424.046 264.504 424.025C264.56 424.004 264.621 423.994 264.681 423.997Z" fill="black"/>
<path d="M267.497 431.809C267.373 431.818 267.25 431.779 267.153 431.7C267.11 431.657 267.077 431.606 267.056 431.549C267.034 431.493 267.025 431.432 267.028 431.372V424.497C267.024 424.439 267.034 424.381 267.055 424.327C267.077 424.273 267.11 424.224 267.153 424.185C267.199 424.142 267.253 424.109 267.312 424.087C267.371 424.066 267.434 424.056 267.497 424.06H271.606C271.718 424.053 271.829 424.087 271.919 424.154C271.956 424.19 271.986 424.234 272.004 424.283C272.023 424.331 272.031 424.383 272.028 424.435C272.03 424.487 272.021 424.538 272.002 424.587C271.984 424.635 271.955 424.679 271.919 424.716C271.829 424.783 271.718 424.816 271.606 424.809H267.919V427.497H271.388C271.503 427.491 271.615 427.53 271.701 427.606C271.737 427.64 271.766 427.681 271.785 427.727C271.804 427.773 271.812 427.822 271.81 427.872C271.812 427.924 271.803 427.975 271.784 428.024C271.766 428.072 271.737 428.116 271.701 428.153C271.611 428.22 271.501 428.254 271.389 428.247H267.919V431.059H271.606C271.718 431.052 271.829 431.086 271.919 431.153C271.956 431.189 271.986 431.233 272.004 431.282C272.023 431.33 272.031 431.382 272.028 431.434C272.03 431.486 272.021 431.537 272.002 431.586C271.984 431.634 271.955 431.678 271.919 431.715C271.829 431.782 271.718 431.816 271.606 431.809H267.497Z" fill="black"/>
<path d="M280.114 431.293C280.134 431.354 280.144 431.417 280.145 431.481C280.144 431.534 280.133 431.586 280.111 431.634C280.09 431.683 280.059 431.726 280.02 431.762C279.936 431.833 279.83 431.872 279.72 431.871C279.636 431.876 279.552 431.853 279.482 431.805C279.412 431.758 279.359 431.689 279.332 431.609L278.551 429.825H274.411L273.614 431.609C273.588 431.688 273.538 431.756 273.47 431.803C273.403 431.851 273.322 431.875 273.239 431.872C273.121 431.873 273.005 431.834 272.911 431.762C272.87 431.724 272.837 431.677 272.816 431.626C272.794 431.574 272.784 431.518 272.786 431.462C272.788 431.403 272.804 431.345 272.832 431.293L275.988 424.293C276.022 424.197 276.087 424.115 276.173 424.059C276.265 424.008 276.368 423.981 276.473 423.981C276.574 423.981 276.673 424.014 276.754 424.075C276.842 424.125 276.912 424.202 276.954 424.294L280.114 431.293ZM274.739 429.075H278.223L276.473 425.122L274.739 429.075Z" fill="black"/>
<path d="M281.855 431.809C281.741 431.814 281.629 431.775 281.543 431.7C281.501 431.66 281.468 431.611 281.446 431.557C281.425 431.503 281.415 431.445 281.417 431.387V424.465C281.413 424.402 281.422 424.339 281.444 424.28C281.465 424.221 281.499 424.167 281.542 424.121C281.585 424.079 281.637 424.046 281.693 424.025C281.75 424.003 281.81 423.993 281.87 423.996C281.93 423.994 281.99 424.004 282.046 424.026C282.103 424.047 282.154 424.08 282.198 424.121C282.24 424.167 282.273 424.221 282.295 424.28C282.316 424.34 282.326 424.402 282.323 424.465V431.043H285.87C285.982 431.036 286.093 431.07 286.183 431.137C286.22 431.173 286.25 431.217 286.268 431.265C286.287 431.314 286.295 431.366 286.292 431.418C286.295 431.473 286.287 431.528 286.268 431.579C286.249 431.631 286.22 431.678 286.183 431.718C286.093 431.784 285.982 431.817 285.87 431.809H281.855Z" fill="black"/>
<path d="M289.681 431.872C289.621 431.874 289.561 431.865 289.504 431.843C289.448 431.822 289.396 431.789 289.353 431.747C289.268 431.653 289.223 431.53 289.228 431.403V424.825H286.869C286.757 424.833 286.646 424.799 286.557 424.731C286.519 424.691 286.489 424.644 286.471 424.593C286.452 424.541 286.444 424.486 286.448 424.431C286.444 424.379 286.451 424.327 286.47 424.278C286.489 424.229 286.519 424.186 286.557 424.15C286.646 424.083 286.757 424.05 286.869 424.059H292.509C292.617 424.053 292.724 424.086 292.809 424.153C292.846 424.189 292.876 424.233 292.894 424.281C292.913 424.33 292.921 424.382 292.918 424.434C292.921 424.489 292.913 424.544 292.894 424.595C292.875 424.647 292.846 424.694 292.809 424.734C292.724 424.801 292.617 424.834 292.509 424.828H290.134V431.403C290.137 431.529 290.093 431.652 290.009 431.747C289.967 431.79 289.915 431.824 289.859 431.845C289.802 431.867 289.741 431.876 289.681 431.872Z" fill="black"/>
<path d="M299.911 423.997C299.971 423.993 300.032 424.002 300.089 424.024C300.145 424.045 300.197 424.079 300.239 424.122C300.315 424.22 300.353 424.342 300.348 424.466V431.403C300.351 431.527 300.313 431.648 300.239 431.747C300.197 431.79 300.145 431.824 300.089 431.845C300.032 431.867 299.971 431.876 299.911 431.872C299.851 431.874 299.791 431.865 299.734 431.843C299.678 431.822 299.626 431.789 299.583 431.747C299.498 431.653 299.453 431.53 299.458 431.403V428.262H294.817V431.403C294.82 431.529 294.776 431.652 294.692 431.747C294.65 431.79 294.598 431.824 294.542 431.845C294.485 431.867 294.424 431.876 294.364 431.872C294.304 431.874 294.244 431.865 294.187 431.843C294.131 431.822 294.079 431.789 294.036 431.747C293.96 431.649 293.922 431.527 293.926 431.403V424.465C293.918 424.341 293.957 424.218 294.035 424.121C294.078 424.079 294.13 424.046 294.186 424.025C294.243 424.003 294.303 423.994 294.363 423.996C294.423 423.992 294.484 424.001 294.541 424.023C294.597 424.044 294.649 424.078 294.691 424.121C294.734 424.167 294.766 424.221 294.788 424.281C294.809 424.34 294.819 424.402 294.816 424.465V427.481H299.457V424.465C299.453 424.402 299.462 424.339 299.484 424.28C299.505 424.221 299.539 424.167 299.582 424.121C299.626 424.079 299.677 424.046 299.734 424.025C299.79 424.004 299.851 423.994 299.911 423.997Z" fill="black"/>
<path d="M229.691 252.676C231.018 250.06 232.712 247.648 234.722 245.512C238.822 241.27 244.093 238.797 249.499 236.657C258.773 232.989 268.081 229.399 277.37 225.77C270.663 228.391 263.027 228.739 256.07 230.551C248.343 232.559 240.296 235.371 233.945 240.367C231.931 241.941 230.099 243.734 228.484 245.715C224.753 250.394 222.372 256.004 221.601 261.938C218.739 258.009 217.344 253.202 217.659 248.352C218.191 238.305 224.984 229.625 233.652 224.981C244.886 218.965 259.097 218.4 271.536 217.84C272.247 217.809 272.962 217.778 273.677 217.75C277.533 217.59 281.447 217.45 285.134 216.293C288.821 215.136 292.326 212.832 294.044 209.367C293.244 211.609 293.111 213.652 292.306 215.89C285.712 234.246 275.29 250.69 258.685 261.515C253.404 264.956 247.585 267.784 241.349 268.675C237.853 269.181 234.293 269.003 230.865 268.151C229.413 267.769 228.018 267.198 226.716 266.451C226.044 261.822 227.599 256.674 229.693 252.678" fill="#107E7D"/>
</g>
</g>
<defs>
<clipPath id="clip0">
<rect width="414" height="736" fill="white"/>
</clipPath>
<clipPath id="clip1">
<rect width="189.608" height="222.903" fill="white" transform="translate(112 209)"/>
</clipPath>
</defs>
</svg>
